4D 54 68 64 00 00 00 06 00 01 00 02 01 00
4D 54 72 6B 00 00 00 29

00 FF 58 04 04 02 18 08

00 FF 59 02 00 00

00 FF 51 03 03 64 0E

B8 00 FF 51 03 05 16 15

87 7F FF 51 03 03 64 0E

01 FF 2F 00

4D 54 72 6B 00 00 00 6C 00 C0 00 00 B0 79

00 00 B0 40 00
00 B0 5B 30
00 B0 0A 33
00 B0 07 64

00 FF 03 05 50 69 61 6E 6F

00 90 3C 56
88 00 80 3C 00

00 90 3D 64
88 00 80 3D 00

00 90 40 6A
88 00 80 40 00

00 90 41 69
88 00 80 41 00

00 90 43 64
88 00 80 43 00

00 90 44 69
88 00 80 44 00

00 90 46 69
88 00 80 46 00

00 90 48 6B
88 00 80 48 00

01 FF 2F 00
